# xmcd CD database file
# Copyright (C) 1995-1998 Ti Kan
#
# Track frame offsets:
#	183
#	14203
#	22700
#	33905
#	52445
#	64683
#	82248
#	92695
#	105063
#	122283
#	133170
#	144908
#	161640
#	177005
#	194105
#	217943
#
# Disc length: 3110 seconds
#
# Revision: 3
# Processed by: cddbd v1.4PL0 Copyright (c) Steve Scherf et al.
# Submitted via: CDex 1.30FinalFR
#
DISCID=d80c2410
DTITLE=Graeme Allwright - 16 titres
DYEAR=1900
DGENRE=Country
TTITLE0=Emmene-moi
TTITLE1=Petites boites
TTITLE2=Le jour de clarté
TTITLE3=Suzanne
TTITLE4=Petit garçon
TTITLE5=Demain sera bien
TTITLE6=Qu'as-tu appris à l'école
TTITLE7=Jolie bouteille
TTITLE8=Il faut que je m'en aille
TTITLE9=Ca je ne l'ai jamais vu
TTITLE10=Qui as tué Davy Moore
TTITLE11=La petite souris
TTITLE12=Ballade de la désescalade
TTITLE13=Jusqu'à la ceinture
TTITLE14=L'étranger
TTITLE15=Lover, lover, lover
EXTD=42283-08792 Polygram distribution ID3G:   2
EXTT0=
EXTT1=
EXTT2=
EXTT3=
EXTT4=
EXTT5=
EXTT6=
EXTT7=
EXTT8=
EXTT9=
EXTT10=
EXTT11=
EXTT12=
EXTT13=
EXTT14=
EXTT15=
PLAYORDER=
